<?xml version="1.0" encoding="UTF-8"?>
<svg width="28px" height="28px" viewBox="0 0 28 28" version="1.1" xmlns="http://www.w3.org/2000/svg" xmlns:xlink="http://www.w3.org/1999/xlink">
    <!-- Generator: Sketch 64 (93537) - https://sketch.com -->
    <title>icons/circle/github1</title>
    <desc>Created with Sketch.</desc>
    <g id="Symbols" stroke="none" stroke-width="1" fill="none" fill-rule="evenodd">
        <g id="social-icons" transform="translate(-156.000000, 0.000000)" fill="#FFFFFF">
            <g id="icons/circle/github1" transform="translate(156.000000, 0.000000)">
                <path d="M13.9987108,0 C6.26882348,0 0,6.2257578 0,13.9061559 C0,20.0499621 4.01105006,25.2615693 9.57426563,27.1003575 C10.2747168,27.2284068 10.5299733,26.7990148 10.5299733,26.4302327 C10.5299733,26.1007192 10.517941,25.2257155 10.5110654,24.0655887 C6.61690046,24.9055922 5.79526689,22.2011906 5.79526689,22.2011906 C5.15841493,20.5945985 4.24052304,20.1669138 4.24052304,20.1669138 C2.96939746,19.3047151 4.33678136,19.3217883 4.33678136,19.3217883 C5.74198103,19.4199595 6.48110746,20.755087 6.48110746,20.755087 C7.72988735,22.879852 9.75818779,22.2660689 10.5557568,21.9100918 C10.6829553,21.0120393 11.0447834,20.3991099 11.4444274,20.0516694 C8.33579913,19.7008143 5.0673133,18.5073947 5.0673133,13.1788357 C5.0673133,11.6610245 5.61306363,10.4189461 6.50860984,9.44747863 C6.36422235,9.09576983 5.88379017,7.68125171 6.64612173,5.76734125 C6.64612173,5.76734125 7.82098898,5.39343724 10.4955953,7.19295698 C11.61202,6.88393129 12.8100924,6.73027211 14.0004297,6.72429648 C15.1899076,6.73027211 16.3871205,6.88393129 17.5052641,7.19295698 C20.1781516,5.39343724 21.3512999,5.76734125 21.3512999,5.76734125 C22.1153504,7.68125171 21.6349182,9.09576983 21.4913902,9.44747863 C22.3886553,10.4189461 22.9301084,11.6610245 22.9301084,13.1788357 C22.9301084,18.5210532 19.6564658,19.696546 16.5383836,20.0405718 C17.040302,20.4699639 17.4880751,21.318504 17.4880751,22.6160704 C17.4880751,24.4744928 17.4708862,25.9743772 17.4708862,26.4302327 C17.4708862,26.8024294 17.7235643,27.2352361 18.4334694,27.0995038 C23.9923877,25.2564473 28,20.0482548 28,13.9061559 C28,6.2257578 21.7311765,0 13.9987108,0" id="Fill-4"></path>
            </g>
        </g>
    </g>
</svg>