<svg width="52" height="59" viewBox="0 0 52 59" fill="none" xmlns="http://www.w3.org/2000/svg">
<g clip-path="url(#clip0_438_39)">
<path d="M21.9833 31.2652V24.7179H36.255C38.3883 24.7179 39.4918 25.8949 39.4918 28.0283C39.4918 29.3525 38.9769 30.4559 37.8734 31.2652H21.9833ZM18.8936 41.785C19.6293 41.1229 20.2913 40.3137 20.8063 39.3573H36.255C38.3883 39.3573 39.4918 40.5344 39.4918 42.6677C39.4918 43.9919 38.9769 45.0954 37.8734 45.9046C35.8871 45.2425 33.8273 44.4333 31.6204 43.8448C25.3673 42.0792 21.1006 41.785 18.8936 41.785ZM8.1531 27.9547C8.1531 26.6306 8.66806 25.5271 9.77154 24.7179H14.5533V31.2652H11.39C9.25658 31.2652 8.1531 30.0881 8.1531 27.9547ZM6.97606 13.4624C6.97606 10.3727 9.40371 7.13581 10.875 6.47373C13.3762 8.23929 15.436 9.63702 17.3487 10.6669C15.8774 12.2118 14.9211 14.1981 14.6268 16.6257H12.8613C8.74162 16.6257 6.97606 15.6694 6.97606 13.4624ZM39.7125 54.8795C44.6414 54.8795 50.3059 52.5255 51.9243 45.7575C50.453 47.0816 47.2897 47.6702 45.377 47.6702C43.2436 47.6702 40.9631 47.0081 38.4619 46.1253C43.7586 44.654 47.2162 41.27 47.2162 36.4883C47.2162 33.0307 43.9793 31.4123 39.1976 31.2652C44.0529 29.7203 47.2162 26.4099 47.2162 21.8488C47.2162 18.1706 43.6115 16.6257 38.3883 16.6257H21.9833V15.8901C21.9833 14.713 22.0569 13.6831 22.204 12.8003C24.6317 13.536 27.28 13.8302 30.5904 13.8302C39.4918 13.8302 46.1127 10.6669 47.2162 1.98626L47.1426 1.76556C43.9793 5.00242 39.4183 6.84155 34.4158 6.84155C28.6778 6.84155 22.4983 5.59095 14.5533 0C3.29781 9.78415 1.45868 13.6095 1.45868 17.8027C1.45868 21.996 3.44494 24.1293 7.34389 24.6443C3.15068 26.4099 0.428772 29.941 0.428772 34.1342C0.428772 37.8124 4.03346 39.3573 9.25658 39.3573H14.3326C13.5969 43.5505 1.38512 48.7001 1.38512 54.4381C1.38512 56.2773 2.63572 58.9992 6.01972 58.9992C11.39 58.9992 13.744 56.8658 17.8637 51.6427L17.5694 51.3484C15.5832 52.8197 14.1119 53.4082 11.1693 53.4082C8.66806 53.4082 6.01972 52.0105 6.01972 49.8771C6.38754 48.9208 9.18301 48.2587 13.082 48.2587C21.3213 48.2587 32.2089 54.8795 39.7125 54.8795Z" fill="black"/>
</g>
<defs>
<clipPath id="clip0_438_39">
<rect width="51.4955" height="58.9992" fill="white" transform="translate(0.428772)"/>
</clipPath>
</defs>
</svg>
