<?xml version="1.0" encoding="UTF-8"?>
<svg width="28px" height="28px" viewBox="0 0 28 28" version="1.1" xmlns="http://www.w3.org/2000/svg" xmlns:xlink="http://www.w3.org/1999/xlink">
    <!-- Generator: Sketch 64 (93537) - https://sketch.com -->
    <title>icons/circle/dribbble</title>
    <desc>Created with Sketch.</desc>
    <g id="Symbols" stroke="none" stroke-width="1" fill="none" fill-rule="evenodd">
        <g id="social-icons" transform="translate(-108.000000, 0.000000)" fill="#FFFFFF">
            <g id="icons/circle/dribbble" transform="translate(108.000000, 0.000000)">
                <path d="M14,0 C21.732375,0 28,6.267625 28,14 C28,21.732375 21.732375,28 14,28 C6.267625,28 0,21.732375 0,14 C0,6.267625 6.267625,0 14,0 Z M14,7 C10.140375,7 7,10.140375 7,14 C7,17.859625 10.140375,21 14,21 C17.859625,21 21,17.859625 21,14 C21,10.140375 17.859625,7 14,7 Z M15.059975,14.979125 C15.8991,17.1605 16.246475,18.988375 16.335725,19.513375 C15.61735,19.81875 14.8281,19.9885 14.00035,19.9885 C12.61785,19.9885 11.34385,19.516875 10.329725,18.725875 C10.43735,18.50625 11.64835,16.167375 15.0206,14.99225 C15.033725,14.987875 15.04685,14.9835 15.059975,14.979125 Z M19.9031875,14.958125 C19.6371875,16.6215 18.6816875,18.05825 17.3403125,18.965625 C17.2790625,18.601625 16.9614375,16.851625 16.1791875,14.702625 C18.0525625,14.4025 19.6993125,14.893375 19.9031875,14.958125 Z M14.1686125,12.9754625 C14.3401125,13.3105875 14.5037375,13.6509625 14.6533625,13.9904625 C14.5746125,14.0123375 14.4958625,14.0359625 14.4179875,14.0613375 C11.3344875,15.0579625 9.6929875,17.7748375 9.5582375,18.0067125 C8.6027375,16.9470875 8.0208625,15.5444625 8.0208625,14.0088375 C8.0208625,13.9475875 8.0217375,13.8872125 8.0243625,13.8268375 C8.2859875,13.8320875 11.1831125,13.8688375 14.1686125,12.9754625 Z M18.6284875,10.2283125 C19.4606125,11.2459375 19.9654875,12.5418125 19.9786125,13.9523125 C19.7808625,13.9111875 17.8042375,13.5104375 15.8153625,13.7598125 C15.7733625,13.6574375 15.7304875,13.5550625 15.6858625,13.4518125 C15.5616125,13.1604375 15.4286125,12.8708125 15.2894875,12.5855625 C17.5006125,11.6834375 18.5024875,10.3989375 18.6284875,10.2283125 Z M11.4583875,8.5980125 C11.6158875,8.8141375 12.6842625,10.2946375 13.6747625,12.0560125 C11.1579125,12.7246 8.9103875,12.7829538 8.29149912,12.7853871 L8.1473875,12.7848875 C8.5350125,10.9290125 9.7853875,9.3872625 11.4583875,8.5980125 Z M13.9997375,8.029875 C15.5196125,8.029875 16.9073625,8.5995 17.9634875,9.536625 C17.8558625,9.68975 16.9554875,10.899875 14.8301125,11.696125 C13.8501125,9.89625 12.7642375,8.4175 12.5988625,8.196125 C13.0486125,8.087625 13.5176125,8.029875 13.9997375,8.029875 Z" id="Combined-Shape"></path>
            </g>
        </g>
    </g>
</svg>