<?xml version="1.0" encoding="UTF-8"?>
<svg width="28px" height="28px" viewBox="0 0 28 28" version="1.1" xmlns="http://www.w3.org/2000/svg" xmlns:xlink="http://www.w3.org/1999/xlink">
    <!-- Generator: Sketch 64 (93537) - https://sketch.com -->
    <title>icon/circle/linkedin</title>
    <desc>Created with Sketch.</desc>
    <g id="Symbols" stroke="none" stroke-width="1" fill="none" fill-rule="evenodd">
        <g id="social-icons" transform="translate(-60.000000, 0.000000)" fill="#FFFFFF">
            <g id="icon/circle/linkedin" transform="translate(60.000000, 0.000000)">
                <path d="M21,20.986875 L18.099375,20.986875 L18.099375,16.447375 C18.099375,15.365 18.080125,13.972875 16.59175,13.972875 C15.082375,13.972875 14.85225,15.152375 14.85225,16.370375 L14.85225,20.986875 L11.95425,20.986875 L11.95425,11.652375 L14.735,11.652375 L14.735,12.929 L14.77525,12.929 C15.162,12.194875 16.10875,11.4205 17.520125,11.4205 C20.4575,11.4205 21,13.353375 21,15.86725 L21,20.986875 Z M8.6835,10.3775 C7.751625,10.3775 7,9.62325 7,8.694875 C7,7.7665 7.751625,7.01225 8.6835,7.01225 C9.611,7.01225 10.364375,7.7665 10.364375,8.694875 C10.364375,9.62325 9.611,10.3775 8.6835,10.3775 L8.6835,10.3775 Z M10.13425,20.986875 L7.230125,20.986875 L7.230125,11.652375 L10.13425,11.652375 L10.13425,20.986875 Z M14,4.6629367e-15 C6.267625,4.6629367e-15 0,6.267625 0,14 C0,21.7315 6.267625,28 14,28 C21.732375,28 28,21.7315 28,14 C28,6.267625 21.732375,4.6629367e-15 14,4.6629367e-15 L14,4.6629367e-15 Z" id="Fill-209"></path>
            </g>
        </g>
    </g>
</svg>