<svg width="52" height="59" viewBox="0 0 52 59" fill="none" xmlns="http://www.w3.org/2000/svg">
<g clip-path="url(#clip0_438_42)">
<path d="M21.5546 31.2652V24.7179H35.8262C37.9596 24.7179 39.063 25.8949 39.063 28.0283C39.063 29.3525 38.5481 30.4559 37.4446 31.2652H21.5546ZM18.4648 41.785C19.2005 41.1229 19.8626 40.3137 20.3775 39.3573H35.8262C37.9596 39.3573 39.063 40.5344 39.063 42.6677C39.063 43.9919 38.5481 45.0954 37.4446 45.9046C35.4584 45.2425 33.3985 44.4333 31.1916 43.8448C24.9386 42.0792 20.6718 41.785 18.4648 41.785ZM7.72433 27.9547C7.72433 26.6306 8.23929 25.5271 9.34276 24.7179H14.1245V31.2652H10.9612C8.82781 31.2652 7.72433 30.0881 7.72433 27.9547ZM6.54729 13.4624C6.54729 10.3727 8.97494 7.13581 10.4462 6.47373C12.9475 8.23929 15.0073 9.63702 16.92 10.6669C15.4487 12.2118 14.4923 14.1981 14.1981 16.6257H12.4325C8.31285 16.6257 6.54729 15.6694 6.54729 13.4624ZM39.2837 54.8795C44.2126 54.8795 49.8771 52.5255 51.4955 45.7575C50.0242 47.0816 46.8609 47.6702 44.9483 47.6702C42.8149 47.6702 40.5344 47.0081 38.0331 46.1253C43.3298 44.654 46.7874 41.27 46.7874 36.4883C46.7874 33.0307 43.5505 31.4123 38.7688 31.2652C43.6241 29.7203 46.7874 26.4099 46.7874 21.8488C46.7874 18.1706 43.1827 16.6257 37.9596 16.6257H21.5546V15.8901C21.5546 14.713 21.6281 13.6831 21.7753 12.8003C24.2029 13.536 26.8512 13.8302 30.1617 13.8302C39.063 13.8302 45.6839 10.6669 46.7874 1.98626L46.7138 1.76556C43.5505 5.00242 38.9895 6.84155 33.9871 6.84155C28.249 6.84155 22.0695 5.59095 14.1245 0C2.86904 9.78415 1.02991 13.6095 1.02991 17.8027C1.02991 21.996 3.01617 24.1293 6.91512 24.6443C2.72191 26.4099 0 29.941 0 34.1342C0 37.8124 3.60469 39.3573 8.82781 39.3573H13.9038C13.1681 43.5505 0.956346 48.7001 0.956346 54.4381C0.956346 56.2773 2.20695 58.9992 5.59095 58.9992C10.9612 58.9992 13.3153 56.8658 17.4349 51.6427L17.1407 51.3484C15.1544 52.8197 13.6831 53.4082 10.7405 53.4082C8.23929 53.4082 5.59095 52.0105 5.59095 49.8771C5.95877 48.9208 8.75424 48.2587 12.6532 48.2587C20.8925 48.2587 31.7801 54.8795 39.2837 54.8795Z" fill="white"/>
</g>
<defs>
<clipPath id="clip0_438_42">
<rect width="51.4955" height="58.9992" fill="white"/>
</clipPath>
</defs>
</svg>
